<svg xmlns="http://www.w3.org/2000/svg" width="990.323" height="487.376" viewBox="0 0 990.323 487.376">
  <g id="Group_1" data-name="Group 1" transform="translate(0.5 -22.607)">
    <path id="Path_1" data-name="Path 1" d="M0,68.357l80.565-7.8h92.277L320.525,49.933l131.1-6.614,65.22-6.273,5.029,23.506L503.543,120.89l-97.774,19.691L242.833,157.526l-103.384,16.56L44.378,189.773H0Z" stroke="#707070" stroke-width="1"/>
    <path id="Path_2" data-name="Path 2" d="M0,223.859V328.944L212.015,311.4h93.54L583.464,271.08l52.65-20.647,57.655-7.3h27.837c6.959,0,0-88.95,0-88.95h-60.22l-310.178,28.1-216.68,19.631-39.334,13.2Z"/>
    <g id="Path_3" data-name="Path 3" stroke-linecap="round">
      <path d="M 0.4999626576900482 497.9578247070312 L 0.4999626576900482 383.2513732910156 L 333.1409606933594 349.4650268554688 L 611.3927612304688 319.9507446289062 C 614.1052856445312 319.7749938964844 826.5125122070312 306.0215148925781 830.19482421875 306.0215148925781 C 833.8457641601562 306.0215148925781 977.6578979492188 293.8406066894531 989.323486328125 292.8519897460938 L 989.323486328125 329.0859069824219 L 989.323486328125 382.3600463867188 L 859.7384643554688 399.1220397949219 L 584.4192504882812 433.0388488769531 C 583.355224609375 433.0788879394531 547.5462036132812 434.43798828125 499.2578430175781 437.4450378417969 C 470.6080932617188 439.2291564941406 443.2362060546875 441.2355346679688 417.9022216796875 443.4086608886719 C 386.2327270507812 446.1252746582031 357.6763305664062 449.1115417480469 333.0265808105469 452.2843933105469 C 277.2108459472656 459.4689025878906 250.7507171630859 463.4117736816406 238.382080078125 465.4544067382812 C 232.8297119140625 466.3712768554688 228.7094573974609 467.1372680664062 226.4664611816406 467.6692810058594 C 225.4750061035156 467.9045104980469 224.95556640625 468.0592346191406 224.6807250976562 468.2054138183594 L 0.4999626576900482 497.9578247070312 Z" stroke="none"/>
      <path d="M 988.823486328125 293.3960571289062 C 973.8546752929688 294.6644287109375 833.81689453125 306.5215148925781 830.1947021484375 306.5215148925781 C 826.5327758789062 306.5215148925781 614.6303100585938 320.2420959472656 611.435302734375 320.448974609375 L 333.1914672851562 349.96240234375 L 0.99993896484375 383.7030944824219 L 0.99993896484375 497.3870849609375 L 224.5289306640625 467.72119140625 C 224.9263305664062 467.5282287597656 225.5186157226562 467.3802490234375 226.35107421875 467.1827697753906 C 228.63720703125 466.6405334472656 232.6575927734375 465.8930358886719 238.3005981445312 464.9611511230469 C 250.67333984375 462.9179077148438 277.1397094726562 458.9739074707031 332.9628295898438 451.7883911132812 C 357.6194458007812 448.6146545410156 386.182861328125 445.6276550292969 417.8594360351562 442.9105224609375 C 443.1972045898438 440.7370300292969 470.5730590820312 438.7302856445312 499.2267150878906 436.9460144042969 C 547.2442626953125 433.9558715820312 582.9254150390625 432.5947875976562 584.37890625 432.5400390625 L 859.67431640625 398.6261596679688 L 988.823486328125 381.9205322265625 L 988.823486328125 329.0859069824219 L 988.823486328125 293.3960571289062 M 989.823486328125 292.3077697753906 L 989.823486328125 329.0859069824219 L 989.823486328125 382.7995300292969 L 859.8026123046875 399.6178894042969 L 584.4595947265625 433.5376586914062 C 584.4595947265625 433.5376586914062 441.1273193359375 438.8739013671875 333.0904541015625 452.7802734375 C 225.0535888671875 466.6866455078125 224.8641967773438 468.6853942871094 224.8641967773438 468.6853942871094 L -6.103515625e-05 498.5285339355469 L -6.103515625e-05 382.7995300292969 L 333.0904541015625 348.967529296875 L 611.3504638671875 319.452392578125 C 611.3504638671875 319.452392578125 826.44873046875 305.5215148925781 830.1947021484375 305.5215148925781 C 833.9408569335938 305.5215148925781 989.823486328125 292.3077697753906 989.823486328125 292.3077697753906 Z" stroke="none" fill="#707070"/>
    </g>
    <text id="Cancel_Rent" data-name="Cancel Rent" transform="matrix(0.995, -0.098, 0.098, 0.995, 34.5, 159.637)" fill="#ff9201" font-size="87.215" font-family="Kalam-Bold, Kalam" font-weight="700" letter-spacing="-0.02em"><tspan x="0" y="0">Cancel Rent</tspan></text>
    <text id="Cancel_Mortgages" data-name="Cancel Mortgages" transform="matrix(0.995, -0.098, 0.098, 0.995, 47.795, 295)" fill="#fff" font-size="87.215" font-family="Kalam-Bold, Kalam" font-weight="700" letter-spacing="-0.02em"><tspan x="0" y="0">Cancel Mortgages</tspan></text>
    <text id="Guarantee_Homes_for_All" data-name="Guarantee Homes for All" transform="matrix(0.995, -0.098, 0.098, 0.995, 64.414, 464.204)" fill="#fc9001" font-size="87.215" font-family="Kalam-Bold, Kalam" font-weight="700" letter-spacing="-0.02em"><tspan x="0" y="0">Guarantee Homes for All</tspan></text>
  </g>
</svg>
